<svg width="180" height="40" viewBox="0 0 180 40" fill="none" xmlns="http://www.w3.org/2000/svg">
<path d="M31.3709 10.5163L27.7418 8.40686L20.6405 4.27912L17.0118 2.16964C16.622 1.94345 16.1423 1.94345 15.753 2.16964L14.5429 2.87306L12.1238 4.27912L10.2838 5.34881L1.1251 10.717C0.957697 10.8148 0.958421 11.0585 1.12655 11.1562C2.37592 11.8793 3.61296 12.5827 4.8638 13.3088C4.94207 13.354 5.03844 13.354 5.11599 13.3088C8.85902 11.1219 12.0564 9.28027 15.7516 7.12338C16.1416 6.89571 16.6227 6.89498 17.0125 7.12189C20.3788 9.07888 23.7457 11.0358 27.112 12.9928C27.5018 13.219 27.7418 13.6378 27.7418 14.091V25.8984C27.7418 26.3516 27.5018 26.7697 27.112 26.9965L25.5234 27.9203L21.2644 30.3962L16.5074 33.1608C16.4292 33.2062 16.3813 33.2901 16.3813 33.3806V37.7461C16.3813 37.9409 16.5916 38.0634 16.759 37.9656L25.5227 32.8719L27.7411 31.5825L29.7816 30.3969L31.3702 29.4732C31.76 29.2468 32 28.828 32 28.3751V11.6145C32 11.1614 31.76 10.7433 31.3702 10.5163H31.3709Z" fill="#EE2737"/>
<path d="M12.4053 21.3806C8.35215 18.9133 4.41456 16.5036 0.357225 14.0341C0.198461 13.9374 0 14.0579 0 14.2512V17.9886C0 18.4358 0.225836 18.8489 0.59331 19.0733L8.3857 23.8284C8.75317 24.0528 8.97901 24.4659 8.97901 24.9131V35.0305C8.97901 35.4799 9.20756 35.8953 9.57779 36.1183L12.6443 37.9667C12.8029 38.0619 13 37.9416 13 37.749V22.4667C13 22.0188 12.7736 21.6055 12.4053 21.3813V21.3806Z" fill="#EE2737"/>
<path d="M47.132 10.1681H48.0436L51.1757 2H50.0888L47.5995 8.71858H47.5878L45.0986 2H44L47.132 10.1681ZM56.6055 7.26903C56.6055 5.66991 55.542 4.49646 53.9877 4.49646C52.3632 4.49646 51.1829 5.68142 51.1829 7.37257C51.1829 9.08673 52.3749 10.2372 54.0578 10.2372C55.2031 10.2372 55.916 9.8115 56.4068 9.19027L55.7407 8.63805C55.3901 9.06372 54.8525 9.38584 54.0929 9.38584C53.0177 9.38584 52.2697 8.69558 52.1412 7.64867H56.5821C56.5821 7.57965 56.6055 7.41858 56.6055 7.26903ZM53.976 5.34779C54.9109 5.34779 55.5186 5.96903 55.6589 6.88938H52.1645C52.3398 5.93451 53.0644 5.34779 53.976 5.34779ZM57.9933 10.1681H58.94V7.37257C58.94 6.10708 59.6412 5.34779 60.7164 5.34779C61.5461 5.34779 62.1188 5.79646 62.1188 7.10796V10.1681H63.0654V6.84336C63.0654 5.24425 62.2473 4.49646 61.0202 4.49646C60.1437 4.49646 59.3958 4.89912 58.9517 5.57788H58.94V4.56549H57.9933V10.1681ZM66.328 10.2372C67.0058 10.2372 67.3915 10.0761 67.707 9.89203L67.4616 9.07522C67.1811 9.22478 66.8305 9.36283 66.4916 9.36283C65.954 9.36283 65.8021 9.04071 65.8021 8.36195V5.3708H67.6836V4.56549H65.8021V2.55221L64.8554 2.65575V4.56549H64.1192V5.3708H64.8554V8.5C64.8554 9.62743 65.3229 10.2372 66.328 10.2372ZM70.9597 10.2372C71.7077 10.2372 72.4089 9.86903 72.8413 9.20177H72.853V10.1681H73.7996V4.56549H72.853V7.28053C72.853 8.61504 72.0699 9.38584 71.1584 9.38584C70.2585 9.38584 69.7677 8.90266 69.7677 7.63717V4.56549H68.821V7.90177C68.821 9.50089 69.6508 10.2372 70.9597 10.2372ZM75.512 10.1681H76.4586V7.4646C76.4586 6.33717 77.1014 5.52035 78.1882 5.52035C78.2817 5.52035 78.422 5.53186 78.5622 5.54336V4.50796C78.4804 4.49646 78.4103 4.49646 78.3285 4.49646C77.5455 4.49646 76.891 4.91062 76.482 5.58938H76.4586V4.56549H75.512V10.1681ZM84.5099 7.26903C84.5099 5.66991 83.4464 4.49646 81.892 4.49646C80.2676 4.49646 79.0872 5.68142 79.0872 7.37257C79.0872 9.08673 80.2793 10.2372 81.9622 10.2372C83.1075 10.2372 83.8203 9.8115 84.3112 9.19027L83.645 8.63805C83.2944 9.06372 82.7568 9.38584 81.9972 9.38584C80.922 9.38584 80.1741 8.69558 80.0455 7.64867H84.4865C84.4865 7.57965 84.5099 7.41858 84.5099 7.26903ZM81.8803 5.34779C82.8153 5.34779 83.423 5.96903 83.5632 6.88938H80.0689C80.2442 5.93451 80.9688 5.34779 81.8803 5.34779ZM86.0379 10.1681H88.5506C91.2035 10.1681 92.8279 8.5 92.8279 6.09558C92.8279 3.67965 91.1451 2 88.5155 2H86.0379V10.1681ZM87.0547 9.25929V2.90885H88.5272C90.4672 2.90885 91.7761 4.23186 91.7761 6.09558C91.7761 7.93628 90.514 9.25929 88.4922 9.25929H87.0547ZM94.9267 3.54159C95.3124 3.54159 95.6162 3.24248 95.6162 2.87434C95.6162 2.50619 95.3124 2.20708 94.9267 2.20708C94.541 2.20708 94.2372 2.50619 94.2372 2.87434C94.2372 3.24248 94.541 3.54159 94.9267 3.54159ZM94.4475 10.1681H95.3942V4.56549H94.4475V10.1681ZM98.9367 10.1681H99.8483L102.162 4.56549H101.145L99.4042 8.98319H99.3925L97.6512 4.56549H96.6227L98.9367 10.1681ZM108.043 7.26903C108.043 5.66991 106.98 4.49646 105.425 4.49646C103.801 4.49646 102.62 5.68142 102.62 7.37257C102.62 9.08673 103.812 10.2372 105.495 10.2372C106.641 10.2372 107.354 9.8115 107.844 9.19027L107.178 8.63805C106.828 9.06372 106.29 9.38584 105.53 9.38584C104.455 9.38584 103.707 8.69558 103.579 7.64867H108.02C108.02 7.57965 108.043 7.41858 108.043 7.26903ZM105.413 5.34779C106.348 5.34779 106.956 5.96903 107.096 6.88938H103.602C103.777 5.93451 104.502 5.34779 105.413 5.34779Z" fill="#212121"/>
<path d="M45.8789 35.2744H50.8197C55.7389 35.2744 58.7163 32.1948 58.7163 27.7559C58.7163 23.2957 55.6095 20.1948 50.755 20.1948H45.8789V35.2744ZM48.4895 32.9806V22.4886H50.7981C53.8834 22.4886 56.0194 24.6974 56.0194 27.7559C56.0194 30.7505 53.905 32.9806 50.6687 32.9806H48.4895Z" fill="#212121"/>
<path d="M70.6547 29.9647C70.6547 26.9488 68.6482 24.7612 65.6923 24.7612C62.607 24.7612 60.4063 26.9063 60.4063 30.0921C60.4063 33.3417 62.6717 35.4443 65.8649 35.4443C68.1304 35.4443 69.4465 34.616 70.3311 33.4904L68.6482 32.0674C68.1088 32.7258 67.2458 33.278 65.9944 33.278C64.3546 33.278 63.2111 32.3859 62.9091 30.878H70.59C70.6115 30.7081 70.6547 30.347 70.6547 29.9647ZM65.6707 26.9063C67.0516 26.9063 67.9146 27.7559 68.2167 29.009H62.9522C63.2974 27.6497 64.3331 26.9063 65.6707 26.9063Z" fill="#212121"/>
<path d="M76.0814 35.4443C78.7568 35.4443 80.0082 34.0426 80.0082 32.301C80.0082 30.2408 78.6058 29.8373 76.3619 28.9665C75.3479 28.5842 74.7006 28.2231 74.7006 27.7134C74.7006 27.0762 75.3695 26.8213 75.8441 26.8213C76.664 26.8213 77.6349 27.1399 78.4763 27.9258L79.6846 26.0567C78.5195 25.1222 77.3113 24.7612 75.9736 24.7612C73.816 24.7612 72.2626 25.993 72.2626 27.6921C72.2626 29.7311 73.7513 30.4957 75.4773 31.0904C76.8582 31.5576 77.5486 31.8125 77.5486 32.3435C77.5486 32.9594 77.0092 33.3629 76.0814 33.3629C74.7869 33.3629 73.8807 32.9594 73.0393 32.1523L71.8311 33.9364C72.9314 34.8921 74.377 35.4443 76.0814 35.4443Z" fill="#212121"/>
<path d="M83.3356 23.3806C84.2417 23.3806 84.9753 22.6585 84.9753 21.7877C84.9753 20.9382 84.2417 20.216 83.3356 20.216C82.4294 20.216 81.7174 20.9382 81.7174 21.7877C81.7174 22.6585 82.4294 23.3806 83.3356 23.3806ZM82.1273 35.2744H84.5438V24.9098H82.1273V35.2744Z" fill="#212121"/>
<path d="M92.1267 39.6284C96.0319 39.6284 97.499 37.3559 97.499 34.2125V24.9098H95.0826V26.0143H95.0394C94.1548 25.1859 92.9682 24.7612 91.76 24.7612C88.8473 24.7612 86.7544 26.9488 86.7544 29.9859C86.7544 33.0656 88.9551 35.1045 91.8894 35.1045C93.1839 35.1045 94.2843 34.6373 95.0826 33.8514H95.1257V34.9346C95.1257 36.3151 94.0685 37.4833 91.9973 37.4833C90.487 37.4833 89.5592 37.0585 88.4157 36.4638L87.8332 38.5452C89.0199 39.2461 90.5517 39.6284 92.1267 39.6284ZM92.213 32.9169C90.5086 32.9169 89.214 31.77 89.214 29.9222C89.214 28.1594 90.4223 26.9275 92.213 26.9275C93.8959 26.9275 95.1905 28.1169 95.1905 29.8797C95.1905 31.6426 93.9607 32.9169 92.213 32.9169Z" fill="#212121"/>
<path d="M100.097 35.2744H102.514V30.0709C102.514 28.032 103.592 26.9063 105.232 26.9063C106.678 26.9063 107.519 27.6072 107.519 29.7948V35.2744H109.936V29.1789C109.936 26.0567 108.382 24.7612 106.074 24.7612C104.693 24.7612 103.42 25.3134 102.557 26.3328H102.514V24.9098H100.097V35.2744Z" fill="#212121"/>
<path d="M122.673 35.4443C125.132 35.4443 127.959 34.0426 127.959 30.9205C127.959 28.0107 125.844 27.3098 123.212 26.2904C121.357 25.5895 120.321 25.2072 120.343 24.1028C120.364 22.9771 121.314 22.3399 122.5 22.3399C123.536 22.3399 124.766 22.8709 126.017 23.8904L127.57 21.8727C126.017 20.662 124.313 20.0249 122.5 20.0249C119.846 20.0249 117.646 21.8727 117.646 24.2302C117.646 26.9913 119.954 28.0107 122.284 28.8178C124.226 29.4974 125.24 29.9222 125.24 31.239C125.24 32.3435 124.377 33.0656 122.694 33.0656C121.378 33.0656 119.868 32.4072 118.768 31.0904L117.128 33.0656C118.724 34.701 120.709 35.4443 122.673 35.4443Z" fill="#212121"/>
<path d="M133.241 35.4443C134.622 35.4443 135.291 35.1682 135.916 34.8284L135.291 32.7682C134.73 33.0656 134.147 33.2143 133.737 33.2143C133.047 33.2143 132.723 32.832 132.723 31.77V26.9275H135.808V24.9098H132.723V21.2143L130.307 21.4691V24.9098H129.012V26.9275H130.307V32.0036C130.307 34.3187 131.429 35.4443 133.241 35.4443Z" fill="#212121"/>
<path d="M141.294 35.4443C142.502 35.4443 143.667 34.9559 144.508 33.9576L144.552 33.9789V35.2744H146.968V24.9098H144.552V29.8797C144.552 32.1098 143.257 33.278 141.855 33.278C140.409 33.278 139.762 32.6408 139.762 30.5806V24.9098H137.345V31.2178C137.345 34.2974 138.964 35.4443 141.294 35.4443Z" fill="#212121"/>
<path d="M154.069 35.4443C155.579 35.4443 156.723 34.8709 157.5 33.8727H157.521V35.2744H159.83V19.6426H157.435V26.1842H157.413C156.615 25.2497 155.428 24.7612 154.048 24.7612C151.156 24.7612 148.956 27.0125 148.956 30.1346C148.956 33.3417 151.156 35.4443 154.069 35.4443ZM154.436 33.278C152.667 33.278 151.415 31.9824 151.415 30.1559C151.415 28.1594 152.775 26.9063 154.457 26.9063C156.27 26.9063 157.521 28.3081 157.521 30.1559C157.521 32.0249 156.162 33.278 154.436 33.278Z" fill="#212121"/>
<path d="M163.91 23.3806C164.816 23.3806 165.55 22.6585 165.55 21.7877C165.55 20.9382 164.816 20.216 163.91 20.216C163.004 20.216 162.292 20.9382 162.292 21.7877C162.292 22.6585 163.004 23.3806 163.91 23.3806ZM162.702 35.2744H165.118V24.9098H162.702V35.2744Z" fill="#212121"/>
<path d="M172.895 35.4443C176.132 35.4443 178.419 33.2567 178.419 30.1134C178.419 26.9275 176.132 24.7612 172.895 24.7612C169.573 24.7612 167.372 27.055 167.372 30.1134C167.372 33.1505 169.573 35.4443 172.895 35.4443ZM172.895 33.278C171.083 33.278 169.832 31.8762 169.832 30.1134C169.832 28.3081 171.062 26.9063 172.895 26.9063C174.621 26.9063 175.959 28.2019 175.959 30.1134C175.959 31.9824 174.6 33.278 172.895 33.278Z" fill="#212121"/>
</svg>
